# xmcd
#
# Track frame offsets:
#	150
#	47526
#	77893
#	131970
#	171998
#	180038
#
# Disc length: 2694 seconds
#
# Revision: 0
# Processed by: cddbd v1.5.2PL0 Copyright (c) Steve Scherf et al.
# Submitted via: audiograbber 1.83.01
#
DISCID=460a8406
DTITLE=Grateful Dead - 93-12-19 Oakland Coliseum Arena, Oakland CA
DYEAR=1900
DGENRE=
TTITLE0=Space
TTITLE1=The Other One
TTITLE2=Days Between
TTITLE3=Sugar Magnolia
TTITLE4=Crowd
TTITLE5=Brokedown Palace
EXTD=
EXTT0=
EXTT1=
EXTT2=
EXTT3=
EXTT4=
EXTT5=
PLAYORDER=
